<svg width="127" height="21" xmlns="http://www.w3.org/2000/svg"><g fill="none" fill-rule="evenodd"><path d="M11.39 1.894c.023 0 .041.011.051.029l.008.03v2.785a.058.058 0 01-.028.05l-.03.008H2.901v12.382h12.386V8.69c0-.02.011-.04.029-.05l.03-.009h2.78c.023 0 .041.011.051.029l.008.03V20.02a.058.058 0 01-.029.051l-.03.008H.06a.058.058 0 01-.051-.028L0 20.022V1.952c0-.022.011-.041.029-.051l.03-.008H11.39zm115.017 6.422v1.352h-7.789l-4.034 7.224h9.318l-1.514-3.872a.057.057 0 01.026-.073l.029-.007h1.617l2.04 5.22c.01.032-.004.064-.028.076l-.026.005-.765-.001v.005h-12.498v-1.353l4.03-7.224h-4.879V8.316h14.473zm-86.835 0v1.352h-8.018l-3.611 7.224h8.792l-1.514-3.872a.057.057 0 01.026-.073l.029-.007h1.617l2.041 5.22c.013.032 0 .064-.026.076l-.029.005-.962-.001v.005H26.142v-1.353l3.611-7.224h-4.653V8.316h14.473zm14.125 6.758l1.201 3.091c.017.038-.012.08-.054.08h-1.617l-1.202-3.091c-.016-.038.013-.08.055-.08h1.617zm-9.387 0c.032 0 .056.023.06.051l-.005.029-1.202 3.09h-1.617a.059.059 0 01-.059-.05l.005-.029 1.201-3.091h1.617zm11.117-2.134v1.353l-6.489-.001v2.604h.005v1.349h-2.856l-.387-1.273c-.012-.038.017-.075.059-.075l1.692-.001v-2.604h-6.497V12.94h14.473zm11.294-9.887v13.839h3.074v-2.998h1.487v4.35h-6.048V3.055h1.487zM62.01 3.05c.033 0 .059.025.059.055 0 .378.008 1.835 0 2.495-.025 2.455-.066 8.071-3.975 12.37l-.255.272-1.016-.983a.064.064 0 010-.084c3.713-3.902 3.75-9.165 3.776-11.588.007-.61.001-1.905 0-2.385v-.152h1.41zm42.558 0l1.022 2.629h1.597l1.023-2.629h1.617c.042 0 .071.042.054.08l-.988 2.549h1.131v6.183l-.315-.001v.005h-1.172v5.019h2.016v1.352h-3.502l-.001-6.371h-1.608c-.165 2.068-1.037 4.353-3.108 6.371l-1.025-1.054c1.691-1.65 2.49-3.508 2.658-5.317h-1.1v-.005h-.315V5.679h1.333l-.988-2.549a.057.057 0 01.026-.073l.028-.007h1.617zm-11.13 8.144v7.043h-1.486l-.001-.601h-8.963v.601h-1.486v-7.043h11.936zm8.484-8.135a.062.062 0 01.068.058v1.286l-2.21.223v2.326h2.21v1.352h-1.912c.115 1.224.535 2.706 1.698 4.428l.214.306v2.125c0 .055-.068.084-.105.046-.959-.904-1.63-2.016-2.106-3.13l.001 6.158h-1.486v-5.915c-.484 1.22-1.158 2.435-2.105 3.458-.026.03-.078.02-.097-.013l-.008-.029V13.37c.935-1.24 1.729-3.121 1.975-5.066h-1.975V6.951h2.209V4.776l-2.146.218a.062.062 0 01-.067-.059V3.65l5.842-.592zM91.95 15.09h-8.963v1.193h8.963V15.09zm0-2.545h-8.963v1.193h8.963v-1.193zM54.583 10.84v1.353H41.807V10.84h12.776zm27.993-7.79c.032 0 .054.02.06.047l-.001.028-.142.524h5.174v1.353h-2.79c-.053.451-.148.918-.29 1.39h3.08v1.353l-.831-.001 1.112 2.58a.061.061 0 01-.055.084h-1.612l-1.146-2.664h-1.081c-.684 1.386-1.796 2.727-3.43 3.75l-.303.182c-.029.019-.064.007-.082-.021l-.01-.034V9.937a8.146 8.146 0 002.066-2.192h-2.062V6.392h2.747c.188-.488.311-.96.381-1.39h-1.232l-.195.727h-1.626a.059.059 0 01-.059-.048v-.028l.702-2.604h1.625zm25.96 3.98h-4.498v3.482h4.498V7.03zm-13.83-3.38v6.758h-6.401V3.65h6.4zm-39.279-.6v1.352L50.87 4.4v1.18h3.713v4.461H41.807v-4.46l3.708-.001v-1.18h-4.56V3.05h14.472zM93.22 5.001h-3.428v4.053h3.428V5.002zM49.383 6.934h-2.381v1.755h2.381V6.934zm-3.868 0h-2.222v1.755h2.222V6.934zm7.581 0H50.87v1.755h2.226V6.934zM20.021 0c.023 0 .041.011.051.029l.008.03v6.615a.058.058 0 01-.028.05l-.03.009H17.09a.058.058 0 01-.051-.029l-.008-.03V3.049h-3.625a.058.058 0 01-.05-.028l-.008-.03V.058c0-.023.01-.041.028-.051l.03-.008h6.615zm29.362 4.401h-2.381v1.18h2.381v-1.18zm76.176-1.352v1.353h-12.78V3.049h12.78zm-87.318 0v1.353H26.439V3.049h11.802z" fill="#4B8CDC" fill-rule="nonzero"/><path stroke="#4B8CDC" stroke-width=".525" stroke-linecap="round" d="M75.755 3.049v15.196"/></g></svg>