<svg xmlns="http://www.w3.org/2000/svg" viewBox="0 0 142.73 22.68"><defs><style>.cls-1{fill:#fff}</style></defs><path class="cls-1" d="M129.38 19.07l5.03-9h-2.04l-5.03 9h2.04zM127.34 3.44h14.43v1.53h-14.43z"/><path class="cls-1" d="M126.39 9.39h16.34v1.53h-16.34zM127.34 19.07h14.11v1.53h-14.11z"/><path class="cls-1" d="M142.38 20.51l-2.3-5.9h-1.83a.06.06 0 00-.06.09l2.3 5.9h1.83a.06.06 0 00.06-.09zM115.55 20.59l-1.16-1.19a9.43 9.43 0 003-6.84h1.66a11.09 11.09 0 01-3.5 8.03zM92.02 4.12h6.96v1.53h-6.96zM100.35 4.12h6.59v1.53h-6.59zM115.16 5l-6.6.67a.07.07 0 01-.07-.07V4.12l6.6-.67a.07.07 0 01.07.07zM93.34 12.64h11.62v1.53H93.34zM92.03 15.51h13.48v1.53H92.03zM93.34 18.39h11.62v1.53H93.34zM100.35 10.22h6.59v1.53h-6.59zM90.59 7.22h8.39v1.53h-8.39zM108.49 7.85h6.67v1.53h-6.67zM115.79 6.41h8.44v1.53h-8.44z"/><path class="cls-1" d="M116.15 11.87h7.72v1.53h-7.72zM120.87 19.06h3.96v1.53h-3.96zM97.42 11.75L96 8.52h2l1.35 3.14a.06.06 0 01-.06.09zM99.71 4.12h1.68v7.63h-1.68zM92.03 12.64h1.68v7.95h-1.68zM103.83 12.64h1.68v7.95h-1.68zM110.99 4.55h1.68V20.6h-1.68z"/><path class="cls-1" d="M120.87 12.33h1.68v8.26h-1.68zM115.79 6.89h1.68v6.5h-1.68z"/><path class="cls-1" d="M122.55 6.89h1.68v6.5h-1.68zM105.25 4.12h1.68v7.63h-1.68zM108.61 17.82c2.67-2.89 3.42-7.11 3.7-9.43l-1.5-.4a12.5 12.5 0 01-2.32 7.1v2.68a.07.07 0 00.12.05z"/><path class="cls-1" d="M115.16 14.72A10.52 10.52 0 01113 8.78l-1.52.4c.32 2 1.08 5.62 3.6 8a.07.07 0 00.12-.05zM90.69 13.18a10 10 0 005.21-8.49h-1.69a8.49 8.49 0 01-3.62 6.53v1.91a.06.06 0 00.1.05zM92.51 6.47l.8-2.94a.07.07 0 00-.07-.09h-1.83l-.8 2.94a.07.07 0 00.07.09zM119.3 6.62l-1.23-3.18h-1.82a.08.08 0 00-.07.1l1.2 3.08zM121 6.62l1.23-3.18H124a.08.08 0 01.07.1l-1.2 3.08zM85.54 20.84a.24.24 0 01-.24-.24V3.44a.24.24 0 01.48 0V20.6a.24.24 0 01-.24.24zM78.81 15.69h1.68v4.91h-1.68z"/><path class="cls-1" d="M73.66 19.07h5.87v1.53h-5.87z"/><path class="cls-1" d="M73.66 3.45h1.68V20.6h-1.68zM70 3.44h-1.6v2.87c0 2.74-.07 8.68-4.26 13.09a.07.07 0 000 .09l1.15 1.11C70 15.71 70.05 9.15 70.08 6.33V3.51a.07.07 0 00-.08-.07zM55.26 20.6H52l-.44-1.44a.07.07 0 01.06-.09h3.6zM46.24 3.44h16.34v1.53H46.24zM47.2 6.3h14.43v1.53H47.2zM47.2 9.81h14.43v1.53H47.2zM47.2 12.24h14.43v1.53H47.2zM46.24 14.61h16.34v1.53H46.24z"/><path class="cls-1" d="M53.58 15.63h1.68v4.97h-1.68zM47.2 6.3h1.68v4.61H47.2zM59.95 6.3h1.68v4.61h-1.68zM55.76 4.38h1.68v6.53h-1.68zM51.39 4.38h1.68v6.53h-1.68zM48.74 20.6l1.35-3.49A.07.07 0 0050 17h-1.8l-1.35 3.49a.06.06 0 00.06.09zM60.1 20.6l-1.36-3.49a.07.07 0 01.07-.09h1.82L62 20.51a.07.07 0 01-.07.09zM31.55 19.07l4.5-9h-2.03l-4.5 9h2.03zM29.85 3.44h13.33v1.53H29.85z"/><path class="cls-1" d="M28.34 9.39h16.34v1.53H28.34zM29.52 19.07h13.3v1.53h-13.3z"/><path class="cls-1" d="M44 20.51l-2.3-5.9h-1.87a.07.07 0 00-.06.09l2.31 5.9h1.82a.06.06 0 00.1-.09zM17.26 9.81v9.59h-14v-14h9.58a.08.08 0 00.07-.07V2.21a.07.07 0 00-.07-.07H.07a.07.07 0 00-.07.07v20.4a.07.07 0 00.07.07h20.4a.07.07 0 00.07-.07V9.81a.07.07 0 00-.07-.06h-3.14a.07.07 0 00-.07.06zM15.07.07v3.31a.08.08 0 00.07.07h4.09v4.09a.07.07 0 00.07.07h3.31a.07.07 0 00.07-.07V.07a.07.07 0 00-.07-.07h-7.47a.07.07 0 00-.07.07z"/></svg>
