<svg width="19" height="19" xmlns="http://www.w3.org/2000/svg" xmlns:xlink="http://www.w3.org/1999/xlink"><defs><path id="a" d="M0 0h19v19H0z"/></defs><g fill="none" fill-rule="evenodd"><path fill="none" d="M-2-1h20v20H-2z"/><g><mask id="b" fill="#fff"><use xlink:href="#a"/></mask><path d="M9.686 12.836c-1.659 0-3-1.34-3-3 0-1.659 1.341-3 3-3s3 1.341 3 3c0 1.66-1.341 3-3 3zm.027-5.021c-1.09 0-2 .909-2 2 0 1.09.91 2 2 2 1.091 0 2-.91 2-2 0-1.091-.873-2-2-2z" fill="#8E8E8E" mask="url(#b)"/><path d="M9.517 19c-.793 0-1.586-.1-2.379-.266-.172-.033-.276-.132-.345-.298l-.62-1.362c-.31-.664-1.034-1.062-1.793-.996l-1.551.166c-.173 0-.31-.033-.414-.166-.552-.564-1.035-1.162-1.414-1.826a7.862 7.862 0 01-.93-2.125.642.642 0 01.068-.432l.897-1.195a1.644 1.644 0 000-1.992L.105 7.313C0 7.18-.033 7.013.035 6.88a9.39 9.39 0 012.38-3.95.649.649 0 01.414-.167l1.551.166c.759.067 1.483-.332 1.793-.996l.62-1.361c.07-.133.207-.233.345-.3a10.319 10.319 0 014.724 0c.172.034.276.134.344.3l.621 1.361c.31.664 1.034 1.063 1.793.996l1.551-.166c.173-.033.31.033.414.166.552.565 1.035 1.162 1.414 1.826.379.664.724 1.362.93 2.125a.642.642 0 01-.068.432l-.897 1.195a1.644 1.644 0 000 1.992l.931 1.195c.104.133.138.3.07.432a9.39 9.39 0 01-2.38 3.951.649.649 0 01-.414.166l-1.551-.166c-.759-.066-1.483.332-1.793.996l-.62 1.362c-.07.132-.207.232-.345.298-.759.166-1.552.266-2.345.266zm-1.896-1.195a8.959 8.959 0 003.758 0l.517-1.13c.483-1.062 1.62-1.692 2.827-1.593l1.276.133c.827-.897 1.483-1.959 1.862-3.121l-.759-.996a2.562 2.562 0 010-3.154l.759-.996a10.323 10.323 0 00-.759-1.66A7.867 7.867 0 0016 3.826l-1.276.132c-1.206.133-2.344-.498-2.827-1.593l-.517-1.162a8.963 8.963 0 00-3.758 0l-.517 1.129c-.483 1.062-1.62 1.693-2.827 1.593L3 3.793c-.828.897-1.483 1.96-1.862 3.121l.759.996c.724.93.724 2.225 0 3.155l-.759.996c.207.564.448 1.129.759 1.66.31.531.69 1.03 1.103 1.46l1.276-.132c1.206-.133 2.344.498 2.827 1.594l.517 1.162z" fill="#8E8E8E" mask="url(#b)"/></g></g></svg>
