<svg width="16" height="16" viewBox="0 0 16 16" xmlns="http://www.w3.org/2000/svg"><g fill="#4B8CDC" fill-rule="evenodd"><path d="M14.14 0H1.825C.848 0 .055.838.055 1.868v12.264c.002 1.033.794 1.87 1.77 1.868H14.14c.976.001 1.768-.835 1.77-1.868V1.868C15.91.838 15.117 0 14.14 0zm.107 15.003H1.754c-.438 0-.72-.298-.72-.76V1.868c0-.461.282-.76.72-.76h12.492c.438 0 .721.299.721.76v12.375c0 .462-.282.76-.72.76z"/><path d="M5.327 10.08h.654c.197 0 .327-.14.327-.347V4.88c0-.208-.13-.346-.327-.346h-.654c-.196 0-.327.138-.327.346v4.852c0 .208.13.347.327.347zM7.327 10.08c.197 0 .327-.14.327-.347V4.88c0-.208-.13-.346-.327-.346-.196 0-.327.138-.327.346v4.852c0 .208.13.347.327.347zM9.196 10.08h1.5c.45 0 .75-.14.75-.347V4.88c0-.208-.3-.346-.75-.346h-1.5c-.45 0-.75.138-.75.346v4.852c0 .208.3.347.75.347zM3.572 10.08c.197 0 .328-.14.328-.347V4.88c0-.208-.131-.346-.328-.346-.196 0-.327.138-.327.346v4.852c0 .208.131.347.327.347zM12.428 4.535c-.197 0-.328.138-.328.346v4.852c0 .208.131.347.328.347.196 0 .327-.14.327-.347V4.88c0-.208-.131-.346-.327-.346zM12.86 10.773H3.63c-.231 0-.385.139-.385.346 0 .208.154.346.385.346h9.23c.231 0 .385-.138.385-.346 0-.207-.154-.346-.384-.346z"/></g></svg>
