<svg width="18" height="18" viewBox="0 0 18 18" xmlns="http://www.w3.org/2000/svg" xmlns:xlink="http://www.w3.org/1999/xlink"><defs><path id="a" d="M1.002 1.013h17.982v17.961H1.002z"/></defs><g transform="translate(-1 -1)" fill="none" fill-rule="evenodd"><path d="M0 0h20v20H0z"/><mask id="b" fill="#fff"><use xlink:href="#a"/></mask><path d="M16.047 18.974H4.009A3.018 3.018 0 0 1 1 15.964V8.067c0-.979.451-1.881 1.279-2.408L8.298 1.52c1.053-.677 2.407-.677 3.385 0l6.019 4.138c.827.527 1.279 1.505 1.279 2.483v7.824c.075 1.655-1.28 3.01-2.934 3.01zM2.957 6.561c-.528.376-.828.903-.828 1.58v7.824c0 1.053.827 1.88 1.88 1.88h12.038c1.053 0 1.88-.827 1.88-1.88v-7.9c0-.601-.3-1.203-.827-1.58L11.08 2.349a1.808 1.808 0 0 0-2.106 0L2.956 6.56z" fill="#8E8E8E" mask="url(#b)"/><path d="M8.34 14.636h3.32c.295 0 .59.211.59.563a.568.568 0 0 1-.59.562H8.34c-.295 0-.59-.21-.59-.562 0-.352.221-.563.59-.563z" fill="#8E8E8E" mask="url(#b)"/><path d="M9.477 12.989l1.318 1.318a.932.932 0 0 1-.659 1.591H9.011a1.125 1.125 0 0 1-1.125-1.125v-1.125a.932.932 0 0 1 1.591-.659z" fill="#8E8E8E" mask="url(#b)" transform="rotate(135 10.136 13.648)"/></g></svg>
