<svg width="16" height="18" viewBox="0 0 16 18" xmlns="http://www.w3.org/2000/svg"><g transform="translate(-2 -2)" fill="none" fill-rule="evenodd"><rect fill="#8E8E8E" x="5" y="5" width="5" height="1" rx=".5"/><rect fill="#8E8E8E" x="5" y="8" width="10" height="1" rx=".5"/><rect fill="#8E8E8E" x="5" y="11" width="10" height="1" rx=".5"/><path d="M4 2.5A1.5 1.5 0 0 0 2.5 4v14.294a.319.319 0 0 0 .58.183l.747-1.062a1.5 1.5 0 0 1 2.368-.11l.917 1.076a.5.5 0 0 0 .762 0l.995-1.174a1.5 1.5 0 0 1 2.271-.02l1.049 1.195a.5.5 0 0 0 .763-.015l.824-1.014a1.5 1.5 0 0 1 2.388.078l.74 1.044a.328.328 0 0 0 .596-.19V4A1.5 1.5 0 0 0 16 2.5H4z" stroke="#8E8E8E"/></g></svg>
