<svg width="18" height="18" viewBox="0 0 18 18" xmlns="http://www.w3.org/2000/svg"><g fill="#4B8CDC" fill-rule="evenodd"><path d="M17.534 17.07H16.24V5.12a.466.466 0 0 0-.336-.446l-4.046-1.166a.479.479 0 0 0-.41.074.458.458 0 0 0-.186.373v13.113H9.954V.465A.47.47 0 0 0 9.392.01l-7.13 1.466a.466.466 0 0 0-.373.456V17.07H.466a.467.467 0 0 0-.466.466c0 .256.21.465.466.465h17.068a.466.466 0 0 0 0-.93zm-5.34-12.495l3.113.898v11.596h-3.113V4.575zM2.821 2.31L9.02 1.036v16.033H2.82V2.311z"/><path d="M4.39 4.652a.339.339 0 0 0 .08-.009l3.219-.76c.21-.05.347-.286.302-.527-.043-.241-.25-.398-.46-.346l-3.22.76c-.21.05-.347.286-.302.527.037.21.199.355.38.355zm3.15 1.219l-3.219.649c-.212.042-.353.274-.316.518.033.216.197.368.384.368a.355.355 0 0 0 .069-.007l3.22-.65c.212-.042.352-.274.315-.517-.037-.243-.24-.406-.452-.361zM7.545 8.7l-3.219.605c-.212.04-.357.27-.321.513.03.219.197.375.384.375a.315.315 0 0 0 .064-.007l3.22-.605c.212-.04.356-.27.321-.513-.035-.243-.236-.408-.449-.368zm0 2.807l-3.219.605c-.212.04-.357.27-.321.513.03.219.197.375.384.375a.315.315 0 0 0 .064-.007l3.22-.604c.212-.04.356-.27.321-.514-.035-.243-.236-.408-.449-.368z"/></g></svg>
