<svg width="14" height="14" xmlns="http://www.w3.org/2000/svg" xmlns:xlink="http://www.w3.org/1999/xlink"><defs><path id="a" d="M.001.013h13.985V14H.001z"/></defs><g fill-rule="evenodd"><mask id="b" fill="#fff"><use xlink:href="#a"/></mask><path d="M4.054 1.646C5.265-.08 7.673-.501 9.43.689a3.752 3.752 0 01.974 5.281 3.898 3.898 0 01-1.13 1.059c2.748.928 4.712 3.489 4.712 6.5a.475.475 0 01-.48.471.475.475 0 01-.48-.471c0-3.272-2.702-5.927-6.033-5.927-3.33 0-6.032 2.655-6.032 5.927A.475.475 0 01.48 14a.476.476 0 01-.48-.472c-.016-3.134 2.111-5.774 5.028-6.601a3.76 3.76 0 01-.975-5.281zM7.23 6.65c1.602 0 2.894-1.276 2.894-2.843S8.824.964 7.23.964c-1.594 0-2.902 1.27-2.902 2.844 0 1.574 1.3 2.844 2.903 2.844z" mask="url(#b)"/></g></svg>
