<svg width="40" height="40" xmlns="http://www.w3.org/2000/svg"><g fill="#1989FA" fill-rule="evenodd"><path d="M31.318 24.035c.273-.001.523-.11.71-.29.184-.178.307-.424.315-.693a.927.927 0 00-.943-.976l-11.107.045a1.034 1.034 0 00-1.021.986c-.022.544.4.982.942.976l11.104-.048zm-7.268 5.129c.272-.001.52-.113.706-.293.187-.18.307-.424.318-.696a.927.927 0 00-.942-.976l-3.702.02a1.035 1.035 0 00-1.022.986c-.021.544.401.982.943.976l3.699-.017z"/><path d="M38.917 37.858h-1.78V14.242l1.794.005a1.07 1.07 0 00.977-1.509L35.258.634A1.073 1.073 0 0034.28 0H5.716c-.424 0-.807.25-.977.634l-4.627 12.1a1.07 1.07 0 00.977 1.508l1.767-.004v23.62H1.07C.477 37.858 0 38.336 0 38.93 0 39.523.477 40 1.07 40h37.843c.593 0 1.07-.477 1.07-1.07 0-.594-.477-1.072-1.066-1.072zm-3.922-.066H16.426V14.224l18.569.014v23.554zM3.155 12.1a.266.266 0 01-.245-.374l3.427-9.424a.268.268 0 01.245-.16h26.833c.107 0 .2.062.246.156l3.44 9.423c.08.179-.05.38-.245.38H3.155zm11.13 2.124v23.568H5.001V14.238l9.282-.014z"/></g></svg>