<svg xmlns="http://www.w3.org/2000/svg" width="65" height="19"><g fill="none" fill-rule="evenodd"><path fill="#000" fill-opacity=".85" d="M2.6 1.81H0v16.413h16.255V7.429h-2.599v8.175H2.6V4.429h8.525V1.81zM12.344 0v2.619h3.217v3.242h2.599V0z"/><g fill="#262626"><path d="M22 9.372c0 .322.26.585.579.585h4.081c-.857 1.41-1.693 2.6-2.485 3.541a3.6 3.6 0 01-.753.69.796.796 0 00-.286.99c.14.314.461.5.799.462l.281-.029c.166-.043.255-.052.305-.052 2.937-.18 5.53-.27 7.709-.271.166.143.387.422.661.836a.495.495 0 00.403.203c.111 0 .218-.037.308-.107l.324-.255a.509.509 0 00.192-.348.508.508 0 00-.112-.38c-.71-.871-1.868-2.28-3.445-4.186l-.055-.067-1.016.706.064.08c.286.363.807 1.016 1.557 1.954.125.178.233.33.324.455-.977.036-2.477.088-4.501.156-.864.03-1.499.048-1.893.053.868-1.069 1.956-2.558 3.237-4.431h6.663v-1.17H22.58a.583.583 0 00-.579.585m1.816-3.44h9.942V4.707h-9.942a.583.583 0 00-.578.585v.055c0 .322.26.585.578.585m17.487 8.466l-.837-.91-.068.049c-.972.71-2.114 1.35-3.395 1.899a.304.304 0 00-.172.195.316.316 0 00.047.269c.112.204.203.372.272.504a.297.297 0 00.418.12l1.643-.978a49.697 49.697 0 001.99-1.087l.102-.06z"/><path d="M49.197 12.431H37.36a.501.501 0 00-.499.504c0 .277.224.503.499.503h5.474v1.489c.014.202-.026.348-.122.447-.12.122-.334.175-.645.158-.527 0-.933-.009-1.206-.026a.33.33 0 00-.34.412c.042.208.071.374.088.498a.333.333 0 00.328.285h.003a13.63 13.63 0 001.19-.054c1.235-.002 1.862-.565 1.862-1.673v-1.536h5.205a.501.501 0 00.498-.503.501.501 0 00-.498-.504"/><path d="M49.378 15.383c-1.319-.648-2.54-1.249-3.664-1.8l-.074-.037-.646.98.102.046c1.506.676 2.73 1.314 3.637 1.895a.3.3 0 00.413-.092l.354-.552a.309.309 0 00-.122-.44m-1.096-4.747h-9.954a.501.501 0 00-.498.504c0 .277.223.503.498.503h9.954a.501.501 0 00.499-.503.501.501 0 00-.499-.504m-9.348-1.74h2.124V7.4h-2.124v1.495zm3.228-2.448h2.178v-1.06h-2.178v1.06zm0 2.447h2.178V7.4h-2.178v1.495zm3.283 0h2.178V7.4h-2.178v1.495zm-7.816-3.507h3.43v1.06h-2.364a.87.87 0 00-.865.874v2.526h10.031a.871.871 0 00.866-.875V6.448h-3.283v-1.06h3.484a.501.501 0 00.498-.504.501.501 0 00-.498-.503h-11.3a.501.501 0 00-.498.503c0 .278.224.504.499.504zm26.49 6.48a.656.656 0 00-.568.107.678.678 0 00-.272.522 13.43 13.43 0 01-.202 1.975c-.065.49-.44.711-1.144.679h-.703c-.433.018-.74-.061-.912-.236-.131-.135-.188-.327-.174-.593V4.64a.637.637 0 00-.632-.64.637.637 0 00-.633.64v9.734c-.018.65.14 1.15.471 1.485.357.362.922.536 1.669.516h1.02l.134.002c1.293 0 2.021-.522 2.169-1.566 0-.047.009-.158.053-.422.1-.743.176-1.347.223-1.798a.673.673 0 00-.5-.723m-8.009-7.12a.637.637 0 00-.632-.639.637.637 0 00-.633.64V8.61c0 1.9-.215 3.332-.637 4.256-.44.924-1.286 1.83-2.515 2.692a.253.253 0 00-.044.372c.269.306.44.523.507.648a.246.246 0 00.362.082c1.454-1.066 2.424-2.151 2.883-3.221.506-1.06.744-2.685.709-4.829V4.748z"/></g></g></svg>